<svg xmlns="http://www.w3.org/2000/svg" width="1200" height="340" viewBox="0 0 1200 340" role="img" aria-labelledby="title desc">
<title id="title">SNN Community</title>
<desc id="desc">Spiking Neural Networks open community, with a stylized network of neurons and spike trains.</desc>
<defs>
  <linearGradient id="bg" x1="0" y1="0" x2="1" y2="1"><stop offset="0" stop-color="#07131E"/><stop offset="1" stop-color="#10283B"/></linearGradient>
  <linearGradient id="spike" x1="0" y1="0" x2="1" y2="0"><stop offset="0" stop-color="#42DEC8"/><stop offset="1" stop-color="#A5A1FF"/></linearGradient>
</defs>
<rect width="1200" height="340" rx="24" fill="url(#bg)"/>
<g opacity="0.045" stroke="#FFFFFF" stroke-width="1"><path d="M0 0V340"/><path d="M55 0V340"/><path d="M110 0V340"/><path d="M165 0V340"/><path d="M220 0V340"/><path d="M275 0V340"/><path d="M330 0V340"/><path d="M385 0V340"/><path d="M440 0V340"/><path d="M495 0V340"/><path d="M550 0V340"/><path d="M605 0V340"/><path d="M660 0V340"/><path d="M715 0V340"/><path d="M770 0V340"/><path d="M825 0V340"/><path d="M880 0V340"/><path d="M935 0V340"/><path d="M990 0V340"/><path d="M1045 0V340"/><path d="M1100 0V340"/><path d="M1155 0V340"/><path d="M1210 0V340"/><path d="M0 16H1200"/><path d="M0 71H1200"/><path d="M0 126H1200"/><path d="M0 181H1200"/><path d="M0 236H1200"/><path d="M0 291H1200"/><path d="M0 346H1200"/></g>
<rect x="57" y="62" width="54" height="4" rx="2" fill="#42DEC8"/>
<rect x="117" y="62" width="23" height="4" rx="2" fill="#A5A1FF"/>
<text x="57" y="144" font-family="Arial, Helvetica, sans-serif" font-size="65" font-weight="700" letter-spacing="-2.0" fill="#F4FAFF">SNN Community</text>
<text x="59" y="190" font-family="Arial, Helvetica, sans-serif" font-size="22" font-weight="400" fill="#B7C9D8">Spiking Neural Networks · Open Collaboration</text>
<text x="59" y="263" font-family="Arial, Helvetica, sans-serif" font-size="19" font-weight="700" letter-spacing="1.0" fill="#42DEC8">LEARN   /   BUILD   /   REPRODUCE   /   CONNECT</text>
<g><path d="M832 91 L928 69" stroke="#A5A1FF" stroke-width="2.3" opacity="0.38"/><path d="M928 69 L1038 103" stroke="#42DEC8" stroke-width="1.25" opacity="0.38"/><path d="M1038 103 L1151 73" stroke="#42DEC8" stroke-width="1.25" opacity="0.38"/><path d="M832 91 L792 194" stroke="#A5A1FF" stroke-width="1.25" opacity="0.38"/><path d="M832 91 L894 172" stroke="#42DEC8" stroke-width="2.3" opacity="0.38"/><path d="M928 69 L894 172" stroke="#42DEC8" stroke-width="1.25" opacity="0.38"/><path d="M928 69 L1038 103" stroke="#A5A1FF" stroke-width="1.25" opacity="0.38"/><path d="M1038 103 L990 215" stroke="#42DEC8" stroke-width="1.25" opacity="0.38"/><path d="M1038 103 L1093 190" stroke="#42DEC8" stroke-width="2.3" opacity="0.38"/><path d="M1151 73 L1093 190" stroke="#A5A1FF" stroke-width="1.25" opacity="0.38"/><path d="M792 194 L894 172" stroke="#42DEC8" stroke-width="1.25" opacity="0.38"/><path d="M792 194 L841 272" stroke="#42DEC8" stroke-width="1.25" opacity="0.38"/><path d="M894 172 L990 215" stroke="#A5A1FF" stroke-width="2.3" opacity="0.38"/><path d="M894 172 L841 272" stroke="#42DEC8" stroke-width="1.25" opacity="0.38"/><path d="M990 215 L1093 190" stroke="#42DEC8" stroke-width="1.25" opacity="0.38"/><path d="M990 215 L1005 290" stroke="#A5A1FF" stroke-width="1.25" opacity="0.38"/><path d="M1093 190 L1160 260" stroke="#42DEC8" stroke-width="2.3" opacity="0.38"/><path d="M1093 190 L1005 290" stroke="#42DEC8" stroke-width="1.25" opacity="0.38"/><path d="M1160 260 L1005 290" stroke="#A5A1FF" stroke-width="1.25" opacity="0.38"/><path d="M841 272 L1005 290" stroke="#42DEC8" stroke-width="1.25" opacity="0.38"/><circle cx="832" cy="91" r="7" fill="#A5A1FF" opacity="0.97"/><circle cx="832" cy="91" r="16" fill="none" stroke="#A5A1FF" stroke-width="1" opacity="0.19"/><circle cx="928" cy="69" r="4.5" fill="#42DEC8" opacity="0.73"/><circle cx="928" cy="69" r="11" fill="none" stroke="#42DEC8" stroke-width="1" opacity="0.19"/><circle cx="1038" cy="103" r="4.5" fill="#42DEC8" opacity="0.73"/><circle cx="1038" cy="103" r="11" fill="none" stroke="#42DEC8" stroke-width="1" opacity="0.19"/><circle cx="1151" cy="73" r="7" fill="#42DEC8" opacity="0.97"/><circle cx="1151" cy="73" r="16" fill="none" stroke="#42DEC8" stroke-width="1" opacity="0.19"/><circle cx="792" cy="194" r="4.5" fill="#A5A1FF" opacity="0.73"/><circle cx="792" cy="194" r="11" fill="none" stroke="#A5A1FF" stroke-width="1" opacity="0.19"/><circle cx="894" cy="172" r="4.5" fill="#42DEC8" opacity="0.73"/><circle cx="894" cy="172" r="11" fill="none" stroke="#42DEC8" stroke-width="1" opacity="0.19"/><circle cx="990" cy="215" r="7" fill="#42DEC8" opacity="0.97"/><circle cx="990" cy="215" r="16" fill="none" stroke="#42DEC8" stroke-width="1" opacity="0.19"/><circle cx="1093" cy="190" r="4.5" fill="#42DEC8" opacity="0.73"/><circle cx="1093" cy="190" r="11" fill="none" stroke="#42DEC8" stroke-width="1" opacity="0.19"/><circle cx="1160" cy="260" r="4.5" fill="#A5A1FF" opacity="0.73"/><circle cx="1160" cy="260" r="11" fill="none" stroke="#A5A1FF" stroke-width="1" opacity="0.19"/><circle cx="841" cy="272" r="7" fill="#42DEC8" opacity="0.97"/><circle cx="841" cy="272" r="16" fill="none" stroke="#42DEC8" stroke-width="1" opacity="0.19"/><circle cx="1005" cy="290" r="4.5" fill="#42DEC8" opacity="0.73"/><circle cx="1005" cy="290" r="11" fill="none" stroke="#42DEC8" stroke-width="1" opacity="0.19"/></g>
<path d="M753 160 L790 160 L798 135 L808 195 L823 144 L831 160 L882 160 L890 110 L902 202 L913 160 L969 160 L978 140 L987 180 L996 160 L1042 160 L1055 123 L1066 200 L1075 160 L1161 160" stroke="url(#spike)" fill="none" stroke-width="3.3" stroke-linecap="round" stroke-linejoin="round" opacity="0.83"/>
<path d="M746 307H1172" stroke="#42DEC8" opacity="0.20"/>
</svg>